<svg xmlns="http://www.w3.org/2000/svg" width="720" height="360"><defs><style type="text/css"><![CDATA[ 
    .bar:hover { fill: brown; }
   ]]></style></defs><g transform="translate(60, 20)"><rect x="26.66666666666668" width="25.411764705882348" y="133.37446733981656" height="116.62553266018344" style="fill: #1f77b4;"></rect><rect x="152.15686274509804" width="25.411764705882348" y="115.67328336567616" height="134.32671663432387" style="fill: #1f77b4;"></rect><rect x="277.6470588235294" width="25.411764705882348" y="0" height="250" style="fill: #1f77b4;"></rect><rect x="403.1372549019607" width="25.411764705882348" y="79.2458576480785" height="170.75414235192147" style="fill: #1f77b4;"></rect><rect x="528.6274509803922" width="25.411764705882348" y="10.119874410666768" height="239.8801255893332" style="fill: #1f77b4;"></rect><rect x="54.90196078431373" width="25.411764705882348" y="150.54254129943365" height="99.45745870056635" style="fill: #ff7f0e;"></rect><rect x="180.39215686274508" width="25.411764705882348" y="129.84106808289334" height="120.15893191710663" style="fill: #ff7f0e;"></rect><rect x="305.88235294117646" width="25.411764705882348" y="13.048996373134912" height="236.9510036268651" style="fill: #ff7f0e;"></rect><rect x="431.37254901960773" width="25.411764705882348" y="93.30617662300227" height="156.69382337699773" style="fill: #ff7f0e;"></rect><rect x="556.8627450980392" width="25.411764705882348" y="77.54992636356519" height="172.4500736364348" style="fill: #ff7f0e;"></rect><rect x="83.13725490196079" width="25.411764705882348" y="214.9640545360214" height="35.03594546397861" style="fill: #2ca02c;"></rect><rect x="208.62745098039215" width="25.411764705882348" y="184.7251801299166" height="65.2748198700834" style="fill: #2ca02c;"></rect><rect x="334.1176470588235" width="25.411764705882348" y="168.41901402900078" height="81.58098597099922" style="fill: #2ca02c;"></rect><rect x="459.6078431372548" width="25.411764705882348" y="148.93010470067026" height="101.06989529932974" style="fill: #2ca02c;"></rect><rect x="585.0980392156863" width="25.411764705882348" y="96.84050388509593" height="153.15949611490407" style="fill: #2ca02c;"></rect><g transform="translate(0, 250)" fill="none" font-size="10" font-family="sans-serif" text-anchor="middle"><path class="domain" stroke="#000" d="M0.5,6V0.5H640.5V6"></path><g class="tick" opacity="1" transform="translate(69.01960784313727,0)"><line stroke="#000" y2="6"></line><text fill="#000" y="9" dy=".15em" style="text-anchor: end;" dx="-.8em" transform="rotate(-20)">Integer mask</text></g><g class="tick" opacity="1" transform="translate(194.50980392156862,0)"><line stroke="#000" y2="6"></line><text fill="#000" y="9" dy=".15em" style="text-anchor: end;" dx="-.8em" transform="rotate(-20)">Decimal digits</text></g><g class="tick" opacity="1" transform="translate(319.99999999999994,0)"><line stroke="#000" y2="6"></line><text fill="#000" y="9" dy=".15em" style="text-anchor: end;" dx="-.8em" transform="rotate(-20)">Thousand separators</text></g><g class="tick" opacity="1" transform="translate(445.49019607843127,0)"><line stroke="#000" y2="6"></line><text fill="#000" y="9" dy=".15em" style="text-anchor: end;" dx="-.8em" transform="rotate(-20)">Scientific notation</text></g><g class="tick" opacity="1" transform="translate(570.9803921568628,0)"><line stroke="#000" y2="6"></line><text fill="#000" y="9" dy=".15em" style="text-anchor: end;" dx="-.8em" transform="rotate(-20)">Percentage</text></g></g><text transform="translate(320, 335)" style="text-anchor: middle;"></text><g fill="none" font-size="10" font-family="sans-serif" text-anchor="end"><path class="domain" stroke="#000" d="M-6,250.5H0.5V0.5H-6"></path><g class="tick" opacity="1" transform="translate(0,250.5)"><line stroke="#000" x2="-6"></line><text fill="#000" x="-9" dy="0.32em">0</text></g><g class="tick" opacity="1" transform="translate(0,223.59670276301256)"><line stroke="#000" x2="-6"></line><text fill="#000" x="-9" dy="0.32em">200</text></g><g class="tick" opacity="1" transform="translate(0,196.6934055260251)"><line stroke="#000" x2="-6"></line><text fill="#000" x="-9" dy="0.32em">400</text></g><g class="tick" opacity="1" transform="translate(0,169.79010828903762)"><line stroke="#000" x2="-6"></line><text fill="#000" x="-9" dy="0.32em">600</text></g><g class="tick" opacity="1" transform="translate(0,142.88681105205018)"><line stroke="#000" x2="-6"></line><text fill="#000" x="-9" dy="0.32em">800</text></g><g class="tick" opacity="1" transform="translate(0,115.98351381506274)"><line stroke="#000" x2="-6"></line><text fill="#000" x="-9" dy="0.32em">1,000</text></g><g class="tick" opacity="1" transform="translate(0,89.08021657807527)"><line stroke="#000" x2="-6"></line><text fill="#000" x="-9" dy="0.32em">1,200</text></g><g class="tick" opacity="1" transform="translate(0,62.176919341087824)"><line stroke="#000" x2="-6"></line><text fill="#000" x="-9" dy="0.32em">1,400</text></g><g class="tick" opacity="1" transform="translate(0,35.27362210410038)"><line stroke="#000" x2="-6"></line><text fill="#000" x="-9" dy="0.32em">1,600</text></g><g class="tick" opacity="1" transform="translate(0,8.370324867112885)"><line stroke="#000" x2="-6"></line><text fill="#000" x="-9" dy="0.32em">1,800</text></g></g><text transform="rotate(-90)" y="-60" x="-125" dy="1em" style="text-anchor: middle;">values formatted per millisecond</text><circle cx="50" cy="30" r="10" style="fill: #1f77b4;"></circle><circle cx="50" cy="60" r="10" style="fill: #ff7f0e;"></circle><circle cx="50" cy="90" r="10" style="fill: #2ca02c;"></circle><text x="70" y="30" style="font-size: 15px;" alignment-baseline="middle">rose-format compiled render</text><text x="70" y="60" style="font-size: 15px;" alignment-baseline="middle">rose-format reference render</text><text x="70" y="90" style="font-size: 15px;" alignment-baseline="middle">excel-style-dataformatter</text></g></svg>