<?xml version="1.0" encoding="utf-8"?>
<!-- Generator: Adobe Illustrator 19.2.0, SVG Export Plug-In . SVG Version: 6.00 Build 0)  -->
<svg version="1.1" id="Layer_1" xmlns="http://www.w3.org/2000/svg" xmlns:xlink="http://www.w3.org/1999/xlink" x="0px" y="0px"
	 viewBox="0 0 800 404.8" style="enable-background:new 0 0 800 404.8;" xml:space="preserve">
<style type="text/css">
	.st0{fill:#3E3673;}
	.st1{fill:url(#SVGID_1_);}
	.st2{fill:url(#SVGID_2_);}
	.st3{fill:url(#SVGID_3_);}
	.st4{fill:url(#SVGID_4_);}
	.st5{fill:url(#SVGID_5_);}
	.st6{fill:url(#SVGID_6_);}
	.st7{fill:url(#SVGID_7_);}
	.st8{fill:url(#SVGID_8_);}
	.st9{fill:url(#SVGID_9_);}
	.st10{fill:url(#SVGID_10_);}
	.st11{fill:url(#SVGID_11_);}
	.st12{fill:url(#SVGID_12_);}
	.st13{fill:url(#SVGID_13_);}
	.st14{fill:url(#SVGID_14_);}
	.st15{opacity:0.4;fill:url(#SVGID_15_);}
	.st16{opacity:0.4;fill:url(#SVGID_16_);}
	.st17{opacity:0.4;fill:url(#SVGID_17_);}
	.st18{fill:url(#SVGID_18_);}
	.st19{fill:url(#SVGID_19_);}
	.st20{fill:url(#SVGID_20_);}
	.st21{fill:url(#SVGID_21_);}
	.st22{fill:url(#SVGID_22_);}
	.st23{fill:url(#SVGID_23_);}
</style>
<g>
	<g>
		<g>
			<path class="st0" d="M387.3,271.1v5.5h11.1v8.3h-11.1V297h-9.6v-34.5h22v8.6H387.3z"/>
			<path class="st0" d="M413,283.7c0-8.3,6.2-14.2,14.9-14.2c8.7,0,14.9,5.9,14.9,14.2c0,8.2-6.3,14.2-14.9,14.2
				C419.2,297.9,413,291.9,413,283.7z M433.7,283.7c0-3.5-2.4-5.9-5.7-5.9c-3.3,0-5.7,2.4-5.7,5.9c0,3.5,2.4,5.9,5.7,5.9
				C431.3,289.7,433.7,287.2,433.7,283.7z"/>
			<path class="st0" d="M475.3,270.3v8.4h-3.6c-3.2,0-4.6,1.4-4.6,4.8V297h-9.2v-26.6h6.1l1.4,3c1.9-2.2,4.2-3.1,7.3-3.1H475.3z"/>
			<path class="st0" d="M530.4,280.3V297h-9.2v-15.6c0-2.8-1-4.1-3-4.1c-2.5,0-3.8,1.7-3.8,5.1V297h-8.9v-15.6c0-2.7-1-4.1-2.9-4.1
				c-2.5,0-3.8,1.8-3.8,5.1V297h-9.2v-26.6h6.4l1.3,2.9c1.9-2.2,4.7-3.6,7.8-3.6c3.2,0,6,1.5,7.6,3.9c1.9-2.4,4.9-3.9,8.2-3.9
				C526.6,269.6,530.4,274.1,530.4,280.3z"/>
			<path class="st0" d="M575.1,270.4V297H568l-0.8-1.9c-2.2,1.8-4.9,2.8-8,2.8c-8.1,0-14-5.9-14-14.2c0-8.2,5.8-14.1,14-14.1
				c3.1,0,5.9,1,8.1,2.9l0.9-2.1H575.1z M566.3,283.7c0-3.5-2.5-6-6-6c-3.5,0-6,2.6-6,6c0,3.5,2.5,6.1,6,6.1
				C563.8,289.8,566.3,287.2,566.3,283.7z"/>
			<path class="st0" d="M609.6,289v8h-6.3c-5.9,0-9.5-3.6-9.5-9.5v-10H589v-2.1l11.9-12.7h1.9v7.8h6.7v7.1H603v8.5
				c0,1.9,1.1,3.1,3.1,3.1H609.6z"/>
			<path class="st0" d="M642.7,289v8h-6.3c-5.9,0-9.5-3.6-9.5-9.5v-10h-4.9v-2.1l11.9-12.7h1.9v7.8h6.7v7.1h-6.5v8.5
				c0,1.9,1.1,3.1,3.1,3.1H642.7z"/>
			<path class="st0" d="M685,283.5c0,0.8-0.1,1.6-0.2,2.4h-19.8c0.6,3.1,2.5,4.6,5.4,4.6c2.1,0,3.9-0.9,4.8-2.5h9.1
				c-1.9,6.1-7.3,9.9-13.9,9.9c-8.3,0-14.5-6.1-14.5-14.2c0-8.2,6.1-14.2,14.5-14.2C679.1,269.5,685,275.6,685,283.5L685,283.5z
				 M665.3,280.8H676c-0.8-2.7-2.7-4.1-5.5-4.1C667.9,276.7,666,278.2,665.3,280.8z"/>
			<path class="st0" d="M717.4,270.3v8.4h-3.6c-3.2,0-4.6,1.4-4.6,4.8V297h-9.2v-26.6h6.1l1.4,3c1.9-2.2,4.2-3.1,7.3-3.1H717.4z"/>
		</g>
		<g>
			<path class="st0" d="M416.4,216.7h-10.3v31.5h-28.4v-103h44.6c22.2,0,38.3,14.9,38.3,36.4c0,12.6-6.2,23-16.3,29.1l20.4,37.5
				h-31.7L416.4,216.7z M406.1,192.8h13c7.9,0,12.5-4.8,12.5-11.2c0-6.4-4.6-11.1-12.5-11.1h-13V192.8z"/>
			<path class="st0" d="M601.8,250.9c-21.7,0-34.8-11.4-35.1-28.6h26.3c0,5.8,4,8.5,9.2,8.5c4,0,7.8-2,7.8-6.1c0-4.6-6-5.9-13.6-7.2
				c-12.3-2-28.6-5.7-28.6-25c0-15.9,13.6-26.2,33.9-26.2c20.2,0,33.3,10.8,33.7,26.9h-25.6c0-5.1-3.4-7.4-8.4-7.4
				c-4.4,0-7.3,2.2-7.3,5.9c0,4.5,6.1,5.6,13.6,6.9c12.5,2.2,29.2,4.8,29.2,25C636.9,240,622.9,250.9,601.8,250.9L601.8,250.9z"/>
			<path class="st0" d="M731.6,207.8c0,2.4-0.2,4.8-0.6,7.2h-59c1.8,9.1,7.6,13.8,16.2,13.8c6.4,0,11.7-2.8,14.4-7.4h27.2
				c-5.6,18.1-21.7,29.5-41.6,29.5c-24.8,0-43.2-18.1-43.2-42.4c0-24.4,18.2-42.3,43.2-42.3C713.8,166.2,731.6,184.5,731.6,207.8
				L731.6,207.8z M672.5,199.9h32.1c-2.4-7.9-8.1-12.2-16.4-12.2C680.3,187.6,674.7,192,672.5,199.9z"/>
			<path class="st0" d="M555,194.8v-18h-13v-17h-19v17h-17v-17h-22v17h-11v18h11v18h-11v20h11v14h22v-14h17v14h19v-14h13v-20h-13
				v-18H555z M523,212.8h-17v-18h17V212.8z"/>
		</g>
	</g>
	<g>
		<g>
			<g>
				<linearGradient id="SVGID_1_" gradientUnits="userSpaceOnUse" x1="131.5774" y1="206.3523" x2="94.3386" y2="133.3257">
					<stop  offset="0" style="stop-color:#C418FF"/>
					<stop  offset="1" style="stop-color:#00B8FF"/>
				</linearGradient>
				<path class="st1" d="M125,126l-14.9,76.6c-1.5-1-1.9-1.1-3.4-2c-16.2-10.9-28.4-23-29.3-39.2c-0.7-12.8,6.9-24.8,17.9-30.6
					c0,0,0.1,0,0.1-0.1c0.1-0.1,0.2-0.1,0.3-0.1c1.8-0.9,3.7-1.7,5.8-2.3c4-1.2,8.8-2,14.4-2.3C118.9,125.8,121.5,125.8,125,126z"/>
				<linearGradient id="SVGID_2_" gradientUnits="userSpaceOnUse" x1="288.3129" y1="201.4232" x2="330.1418" y2="125.6389">
					<stop  offset="0" style="stop-color:#C418FF"/>
					<stop  offset="1" style="stop-color:#00B8FF"/>
				</linearGradient>
				<path class="st2" d="M294.2,126l15,75.1c1.5-1,3.1-1.9,4.6-2.9c16.2-10.9,28-21,28.9-37.1c0.7-12.8-6.3-24.5-17.3-30.2
					c0,0-0.1,0-0.1-0.1c-0.1-0.1-0.2-0.1-0.3-0.1c-1.8-0.9-3.7-1.7-5.8-2.3c-4-1.2-8.8-2-14.4-2.3
					C301.8,125.8,297.7,125.8,294.2,126z"/>
			</g>
			<g>
				<linearGradient id="SVGID_3_" gradientUnits="userSpaceOnUse" x1="145.7783" y1="65.5545" x2="188.1099" y2="166.4612">
					<stop  offset="0" style="stop-color:#00EFFF"/>
					<stop  offset="0.9946" style="stop-color:#C418FF"/>
				</linearGradient>
				<path class="st3" d="M182.7,90.1c0,0-28.1-31.8-48-13.2c-21.2,19.8,41.5,74.1,55.2,106.7c0.1-3.8-2.4-10.6-4.5-18.9
					c-1.1-4.7-3.4-9.7-5.3-14.8c-1.5-4-4.4-8.7-6-13.4c-1.2-3.5-1.9-6.4-2.6-10.6c-0.8-4.8-1.7-9.2,0.8-17.5
					C175,99.9,177.8,93.4,182.7,90.1z"/>
				<linearGradient id="SVGID_4_" gradientUnits="userSpaceOnUse" x1="277.5806" y1="70.1692" x2="223.9794" y2="146.3911">
					<stop  offset="0" style="stop-color:#00EFFF"/>
					<stop  offset="0.9946" style="stop-color:#C418FF"/>
				</linearGradient>
				<path class="st4" d="M283,76.7c-18.5-15.3-43.1,4.5-48.6,9.3c2.8,2.7,4.8,6,6.5,9.4c0.5,0.9,0.9,2.1,1.3,3.3c0,0,2,6.1,2.3,8.1
					c0.7,3.9,0.8,8,0.3,12.4c-0.5,4.3-1.7,8.6-4.1,12.4c-3.7,5.9-12.2,11.1-14.1,11.9c0.6,0.2,2.2,0.5,2.9,0.9
					c5.5,2.6,11.3,8.9,12.3,22.1c0,0,1.2-1.5,1.7-2.4c1.8-3.1,44.6-64.7,44.6-76.4l0,0C288.1,83.7,286.4,79.5,283,76.7z"/>
			</g>
			<g>
				<linearGradient id="SVGID_5_" gradientUnits="userSpaceOnUse" x1="208.7287" y1="84.9612" x2="208.7287" y2="195.2022">
					<stop  offset="0" style="stop-color:#00EFFF"/>
					<stop  offset="0.9946" style="stop-color:#C418FF"/>
				</linearGradient>
				<path class="st5" d="M228.3,124.2c2.4-5.4,1.6-9.7,0.7-13.6c-1.1-4.5-3.6-7.3-5.3-9.3c-1.3-1.6-2.6-2.5-2.6-2.5
					c-1.7-1.2-9.1-5.4-18.3-1.6c-2.1,0.9-4.2,2.2-6,3.8c-0.6,0.5-1.1,1.1-1.7,1.7c-2.3,2.3-4.3,5-5.5,8.1c0,0,0,0,0,0
					c-0.6,1.6-1,3.2-1.4,4.8c-0.4,1.6-0.6,3.3-0.7,4.9c-0.1,1.7,0,3.4,0.2,5.2l0.1,1.3l0.2,1.4c0.1,0.9,0.4,1.8,0.6,2.7
					c0.2,0.9,0.5,1.8,0.7,2.7l0.5,1.6l0.5,1.5l1,3.2l0.9,3.3c0.6,2.2,1.1,4.4,1.7,6.7c0.5,2.2,1,4.5,1.4,6.7c0.4,2.3,0.7,4.7,1,7
					c0.3,2.3,0.5,4.5,0.7,6.8c0.2,2.3,0.1,4.6,0.1,7c0,2.3-0.3,4.7-0.6,7c-0.3,2.3-0.8,4.5-1.4,6.8c-0.4,1.3-0.6,2.6-1.1,3.8l8.4,31
					c0.3-0.9,3.1-14.2,5.3-19.5c2.2-5.3,4.2-10.4,6.5-15.2c2.3-4.8,4.6-9.3,6.8-13.6c0.3-0.7,1-2.2,1.3-3c0.3-0.8,0.7-1.8,1.1-2.7
					c0.6-1.8,1.2-3.3,1.7-4.9c1.1-3.1,1.7-5.6,2.3-8.1c0.5-2.5,0.8-4.9,0.7-7.1c-0.1-2.2-0.8-7.7-1.4-8.8c-0.1,0-0.2,0.1-0.3,0.1
					c-2,0.8-4.2,1.4-6.6,1.7c-2.3,0.3-4.7,0.1-7.1-0.6c-2.4-0.7-4.5-1.8-6.3-3.3c-3.7-3-5.7-7-6.5-11c-0.2-1-0.4-2-0.4-3
					c0-0.5-0.1-1.1-0.1-1.7c0-0.6,0.1-0.9,0.1-1.3c0.1-1.2,0.2-2,0.5-3c0.2-1,0.6-2,1-2.9c0.9-1.9,2.4-3.7,4.1-4.9
					c1.8-1.2,3.6-1.7,5.5-1.9c1.9-0.2,3.6,0,5.3,0.4c1.7,0.3,3.4,0.7,4.9,1.3c-3.3-0.3-6.8,0.1-9.5,1.3c-1.4,0.6-2.6,1.4-3.4,2.4
					c-0.8,1-1.4,2.2-1.5,3.4c-0.2,1.2-0.1,2.6,0.1,3.8c0.1,0.4,0.2,1,0.3,1.2l0.2,0.9c0.2,0.6,0.4,1.2,0.7,1.8
					c1.1,2.3,2.9,4.2,4.7,5.1c1.3,0.6,2.5,0.7,3.8,0.6c0,0.1,0,0,0,0c2.4-0.1,4.8-1.2,7.2-2.9C225.3,129.2,227.2,126.8,228.3,124.2z
					 M217.8,133.2c-0.4,0.1-0.7,0.2-1.1,0.2C217.1,133.4,217.4,133.3,217.8,133.2z"/>
				<linearGradient id="SVGID_6_" gradientUnits="userSpaceOnUse" x1="207.9213" y1="128.0086" x2="206.6811" y2="252.656">
					<stop  offset="0" style="stop-color:#00EFFF"/>
					<stop  offset="0.9946" style="stop-color:#C418FF"/>
				</linearGradient>
				<path class="st6" d="M245.3,106.7c-0.3-2-0.8-3.9-1.4-5.8l-0.2-0.7l-0.1-0.2l-0.1-0.4l-0.1-0.3l-0.4-1.2c-0.4-1.2-1-2.4-1.5-3.3
					c-1.7-3.4-4-6.5-6.8-9.2c-0.5-0.5-1.1-1-1.6-1.5c-3.5-2.9-7.7-5.2-12.2-6.5l-0.8-0.3l-1-0.2l-1.2-0.2l-0.7-0.1l-0.9-0.1
					l-1.9-0.2c-1.2-0.1-2.3-0.1-3.4-0.2c-1.1,0-2.2,0.1-3.3,0.1c-4.4,0.4-8.8,1.6-12.7,3.4c-3.9,1.8-7.5,4.3-10.6,7.1
					c-3.1,2.8-5.7,6-8,9.3l-0.3,0.5l-0.1,0.3c-1.2,2.2-2.3,4.6-3.2,7.2c-0.9,2.6-1.6,5.3-2.1,8c-0.9,5.5-0.7,11.1,0.4,16.2l0.4,1.9
					l0.5,1.9c0.2,0.8,0.5,1.6,0.7,2.4c0.5,1.4,1,2.8,1.6,4.2l0.6,1.4l0.3,0.7l0.7,1.5l1.4,3l1.3,2.9c0.9,1.9,1.7,3.9,2.5,5.9l2.3,6
					c0.7,2,1.5,4,2.1,6c0.7,2,1.3,4,1.9,6.1c0.6,2,1.2,4.1,1.6,6.1c0.9,4.1,1.6,8.3,1.7,12.5c0.1,2.1,0,4.2-0.3,6.3
					c-0.4,2.1-0.9,4.2-2.1,6.1c1.9-1.2,3.3-3.3,4.4-5.3c0.5-0.9,0.9-1.8,1.3-2.8c0.5-1.2,0.9-2.5,1.3-3.8c0.6-2.3,1.1-4.6,1.4-6.9
					c0.3-2.3,0.5-4.7,0.5-7c0.1-2.3,0-4.7-0.1-7c-0.1-2.3-0.3-4.6-0.6-6.9c-0.3-2.3-0.7-4.6-1-6.8c-0.4-2.3-0.9-4.5-1.4-6.8
					c-0.5-2.2-1-4.4-1.7-6.7l-0.9-3.3l-1-3.2l-0.5-1.6l-0.4-1.5c-0.3-0.9-0.6-1.8-0.8-2.8c-0.2-0.9-0.5-1.8-0.6-2.7l-0.2-1.4
					l-0.1-1.3c-0.2-1.8-0.2-3.5-0.2-5.2c0.1-1.7,0.3-3.3,0.7-4.9c0.4-1.6,0.9-3.1,1.6-4.7c0.3-0.7,1.3-2.9,2.8-5
					c1.5-2,2.9-3.3,3.8-4.1c1.9-1.6,3.9-2.9,6-3.9c2.1-0.9,4.3-1.6,6.5-1.8l1.7-0.1c0.5,0,1.2,0,1.6,0.1c0.2,0,0.9,0.1,0.9,0.1
					c0.1,0,0.4,0.1,0.6,0.1l1.8,0.4c1.9,0.4,3.8,1.4,5.4,2.6c0.2,0.1,0.4,0.3,0.6,0.5c4.4,4,7.4,9.5,7.8,15.5c0.2,3.2-0.2,6.6-2,9.9
					c-0.9,1.6-1.8,3.1-3.1,4.4c0,0,0,0,0,0c-2,1.7-4.6,3.2-6.5,3.7c-0.6,0.2-1.1,0.3-1.7,0.4c-1.3,0.1-2.5,0-3.8-0.6
					c-0.9-0.4-1.8-1.1-2.5-2c-0.8-0.9-1.5-1.9-2-3c-0.3-0.6-0.5-1.2-0.7-1.8l-0.2-0.9c-0.1-0.2-0.1-0.7-0.2-1.1
					c-0.2-1.2-0.2-2.6,0-3.8c0.2-1.2,0.7-2.3,1.4-3.3c0.8-0.9,2-1.8,3.3-2.4c1.5-0.6,3.1-1,4.7-1.2c1.6-0.2,3.2-0.3,4.8-0.2
					c-1.3-0.6-2.8-1-4.2-1.3c-0.2,0-0.4-0.1-0.7-0.1c-1.7-0.3-3.5-0.5-5.4-0.3c-1.9,0.2-3.8,0.8-5.6,1.9c-1.7,1.2-3.2,3-4.1,4.9
					c-0.4,1-0.8,2-1,3c-0.3,1-0.4,1.9-0.5,3.1c0,0.5-0.1,0.7-0.1,1.4c0,0.6,0,1.1,0,1.6c0,1,0.2,2.1,0.4,3.1
					c0.8,4.1,2.9,8.2,6.6,11.2c1.8,1.5,4,2.7,6.4,3.3c2.4,0.7,4.8,0.8,7.2,0.5c2.3-0.3,4.5-0.9,6.5-1.7c0.1,0,0.2-0.1,0.2-0.1
					c1.9-0.8,3.7-1.8,5.3-2.8c0.8-0.6,1.7-1.1,2.5-1.7l0.6-0.5l0.3-0.2l0.1-0.1l0.1-0.1l0.2-0.2c0.1-0.1,0.1-0.1,0.2-0.2
					c0.2-0.2,0.5-0.4,0.8-0.7c0.4-0.4,0.9-0.9,1.3-1.3c0.4-0.4,0.8-0.8,1.1-1.3c0.7-0.9,1.4-1.8,2-2.7c2.5-3.9,4-8.3,4.6-12.6
					C246.3,114.8,246,110.7,245.3,106.7z"/>
				<linearGradient id="SVGID_7_" gradientUnits="userSpaceOnUse" x1="244.9419" y1="149.3453" x2="198.1327" y2="290.3508">
					<stop  offset="0" style="stop-color:#00EFFF"/>
					<stop  offset="0.9946" style="stop-color:#C418FF"/>
				</linearGradient>
				<path class="st7" d="M241.5,169.6c-0.4,2.4-1.1,4.8-2,7c-0.4,1.1-1,2.3-1.6,3.5c-0.6,1.2-1.1,1.8-1.8,3.1
					c-2.1,3.8-4.4,7.9-6.8,12.1c-2.3,4.2-4.7,8.5-6.9,12.9c-2.2,4.4-4.4,8.8-6.2,13.4c-1.8,4.5-3.4,9.1-4.6,13.7
					c-1.2,4.6-1.9,9.2-2.3,13.8c-0.4,4.5-0.3,9,0,13.2c0,1.1,0.2,2.1,0.3,3.1c0.1,1,0.2,2.1,0.4,3.1c0.1,1,0.3,2,0.4,3
					c0.2,1,0.4,1.9,0.5,2.8c0.3,1.9,0.8,3.6,1.1,5.3c0.4,1.7,0.8,3.3,1.2,4.8c0.8,3,1.6,5.6,2.3,7.8c0.6,2.2,1,4,1,4.2
					c-0.1-0.1-1.5-1.4-2.7-3.4c-0.6-1-1.2-2.1-1.9-3.3c-0.7-1.2-1.4-2.5-2.1-4c-1.4-2.9-3-6.1-4.4-9.9c-1.5-3.7-2.8-7.9-3.9-12.4
					c-1.1-4.5-1.9-9.4-2.2-14.6c-0.3-5.1-0.1-10.5,0.6-15.9c0.6-4.6,1.6-9.1,2.8-13.6c0.2-0.8,0.5-1.6,0.7-2.4
					c1.6-5.2,3.4-10.3,5.5-15.2c2-4.8,4.2-9.5,6.3-13.9c2.1-4.4,4.2-8.6,6.2-12.6c0.2-0.7,0.8-2.1,1.1-2.8c0.3-0.8,0.6-1.5,0.9-2.3
					c0.6-1.6,1.1-3.1,1.6-4.5c1-2.8,1.6-5.2,2.1-7.5c0.5-2.3,0.6-4.5,0.5-6.6c-0.1-2.1-0.1-3.5-0.3-5.2c-0.2-1.3-0.4-2.9-0.4-2.9
					s0.3-0.1,1.7,0.3c3,0.8,8.9,4.7,12,12.2C242,159.9,242.3,164.8,241.5,169.6z"/>
			</g>
			<g>
				<g>
					<linearGradient id="SVGID_8_" gradientUnits="userSpaceOnUse" x1="141.1799" y1="141.8502" x2="208.9666" y2="248.9532">
						<stop  offset="0" style="stop-color:#00EFFF"/>
						<stop  offset="0.9946" style="stop-color:#C418FF"/>
					</linearGradient>
					<path class="st8" d="M178.3,161.5c-1.9-3.4-4-6.5-6-9.3c0,0.1-1.6-2.1-1.6-2.1c-3.4-4.5-38.9-44.7-40.1-58.5L125,126l-3.6,18.6
						c10.7,14.6,23.6,29.5,25.6,32.1c0,0,1.6,2.2,1.6,2.1c2,2.8,4.1,5.9,6,9.3c7.8,12.5,18.3,28.5,23,50.4
						c6.5,4.2,19,14.3,27.8,22.8C213.9,213.8,190.6,181.4,178.3,161.5z"/>
					<linearGradient id="SVGID_9_" gradientUnits="userSpaceOnUse" x1="166.1542" y1="152.6966" x2="193.1217" y2="267.5581">
						<stop  offset="0" style="stop-color:#00EFFF"/>
						<stop  offset="0.9946" style="stop-color:#C418FF"/>
					</linearGradient>
					<path class="st9" d="M179.2,161.9c-1.9-3.4-8.5-11.8-8.5-11.8c-3.4-4.5-39.7-45.1-40.2-61.3l-0.8,8.4
						c4.7,15.8,41.4,57.4,47.1,67.2c11.5,19.6,32.3,48.5,25.4,93.9c0.3,0.3,2.9,2.7,3.2,3C213.9,213.8,191.5,181.8,179.2,161.9z"/>
					<linearGradient id="SVGID_10_" gradientUnits="userSpaceOnUse" x1="102.1007" y1="158.3682" x2="182.057" y2="247.3862">
						<stop  offset="0" style="stop-color:#00EFFF"/>
						<stop  offset="0.9946" style="stop-color:#C418FF"/>
					</linearGradient>
					<path class="st10" d="M148.6,178.8c0,0.1-1.6-2.1-1.6-2.1c-2-2.6-14.9-17.4-25.6-32.1l-11.3,58c0.5,0.3,0.6,0.4,1.1,0.7
						c13.5,9.2,27.8,15.7,34.8,19c2.7,1.3,4.4,2.1,4.5,2.1c2.2,1.1,4.4,2.1,6.6,3.1c2.3,1.1,16.8,8.5,20.5,11
						c-4.6-22-15.2-37.9-23-50.4C152.7,184.7,150.6,181.6,148.6,178.8z"/>
				</g>
				<g>
					<linearGradient id="SVGID_11_" gradientUnits="userSpaceOnUse" x1="297.1116" y1="146.7785" x2="189.3405" y2="273.7417">
						<stop  offset="0" style="stop-color:#00EFFF"/>
						<stop  offset="0.9946" style="stop-color:#C418FF"/>
					</linearGradient>
					<path class="st11" d="M309.2,201.1c-8.4,5.9-17.3,11.1-24.6,15c-9.6,5.1-16.7,8.2-16.9,8.3c-5.8,2.8-11.3,5.2-16.4,7.9
						c-1.5,0.8-2.9,1.5-4.2,2.3c-1.7,1.1-3.2,2.3-4.7,3.5c-0.5,0.4-1,0.9-1.4,1.3c0,0-0.4,0.4-1.1,1.1c-4.6,4.8-21.5,25-24.6,66.6
						c-23.5-47.2,6.1-103,27.8-138.7c0,0,1.2-1.8,1.7-2.7c1.9-3.1,4-5.8,5.8-8.4c0.2-0.3,35.3-56.7,37.4-68.2l0.1,0.5l6.2,36.3
						L309.2,201.1z"/>
					<linearGradient id="SVGID_12_" gradientUnits="userSpaceOnUse" x1="255.9067" y1="168.7358" x2="186.901" y2="329.0072">
						<stop  offset="0" style="stop-color:#00EFFF"/>
						<stop  offset="0.9946" style="stop-color:#C418FF"/>
					</linearGradient>
					<path class="st12" d="M247.4,164c0,0,1.2-1.8,1.7-2.7c1.9-3.1,30.9-47.7,40.1-64.5l-1.1-8.9c-2.1,11.5-43,73.3-44.9,76.4
						c-0.5,0.9-1.7,2.7-1.7,2.7c-21.7,35.7-49.9,93-26.3,140.2c0.4-4.7,0.9-9.2,1.6-13.4C201.4,248.7,226.2,197.7,247.4,164z"/>
					<linearGradient id="SVGID_13_" gradientUnits="userSpaceOnUse" x1="312.0792" y1="161.537" x2="251.3063" y2="247.5914">
						<stop  offset="0" style="stop-color:#00EFFF"/>
						<stop  offset="0.9946" style="stop-color:#C418FF"/>
					</linearGradient>
					<path class="st13" d="M251.3,232.3c5.1-2.7,10.7-5.1,16.4-7.9c0.3-0.1,7.3-3.2,16.9-8.3c7.3-3.9,16.2-9.1,24.6-15l-11.1-55.3
						c-8.8,13.1-25.1,37.5-27,40.6c-0.5,0.9-19.2,31.7-25.7,49.4c0.7-0.5,1.2-0.7,1.9-1.2C248.6,233.7,249.8,233,251.3,232.3z"/>
				</g>
			</g>
		</g>
		<g>
			<g>
				<g>
					<linearGradient id="SVGID_14_" gradientUnits="userSpaceOnUse" x1="344.993" y1="180.2643" x2="222.4587" y2="310.1801">
						<stop  offset="0" style="stop-color:#00EFFF"/>
						<stop  offset="0.9946" style="stop-color:#C418FF"/>
					</linearGradient>
					<path class="st14" d="M228.3,333.2c0,0-13.6-0.5-13.6-11.7c0-5,0.2-9.8,0.5-14.3c3.2-41.6,20.1-61.8,24.6-66.6
						c0.7-0.7,1.1-1.1,1.1-1.1c0.5-0.4,0.9-0.9,1.4-1.3c1.4-1.3,3-2.4,4.7-3.5c1.3-0.9,2.7-1.6,4.2-2.3c5.1-2.7,10.7-5.1,16.4-7.9
						c0.3-0.1,7.3-3.2,16.9-8.3c7.3-3.9,16.2-9.1,24.6-15c16.2-11.4,31-25.7,31-40c0-12.8-5.3-25.2-16.4-31
						c19.1,8.8,20.9,28.4,20.9,28.4c15.1,128.7-73.3,165.3-105.6,172.8C232.6,332.8,228.7,333.2,228.3,333.2z"/>
				</g>
				<g>
					<linearGradient id="SVGID_15_" gradientUnits="userSpaceOnUse" x1="309.5795" y1="214.2554" x2="108.0624" y2="327.9317">
						<stop  offset="0" style="stop-color:#00EFFF"/>
						<stop  offset="0.9946" style="stop-color:#C418FF"/>
					</linearGradient>
					<path class="st15" d="M261.9,262.7c0.7-0.7,1.1-1.1,1.1-1.1c0.5-0.4,0.9-0.9,1.4-1.3c1.4-1.3,3-2.4,4.7-3.5
						c1.3-0.9,2.7-1.6,4.2-2.3c5.1-2.7,10.7-5.1,16.4-7.9c0.3-0.1,7.3-3.2,16.9-8.3c7.3-3.9,16.2-9.1,24.6-15
						c4.6-3.2,9.1-6.7,13.2-10.4c2.3-16,2.5-34,0.2-54.4c0,0-1.8-19.6-20.9-28.4c11,5.8,16.3,18.2,16.4,31c0,14.3-14.8,28.7-31,40
						c-8.4,5.9-17.3,11.1-24.6,15c-9.6,5.1-16.7,8.2-16.9,8.3c-5.8,2.8-11.3,5.2-16.4,7.9c-1.5,0.8-2.9,1.5-4.2,2.3
						c-1.7,1.1-3.2,2.3-4.7,3.5c-0.5,0.4-1,0.9-1.4,1.3c0,0-0.4,0.4-1.1,1.1c-4.6,4.8-21.5,25-24.6,66.6c-0.3,4.5-0.5,9.3-0.5,14.3
						c0,11.3,13.6,11.7,13.6,11.7s3.4-0.5,8.9-1.9c0-0.6,0.1-1.3,0.1-1.9C240.5,287.7,257.4,267.5,261.9,262.7z"/>
					<linearGradient id="SVGID_16_" gradientUnits="userSpaceOnUse" x1="339.2021" y1="239.0929" x2="234.876" y2="306.4894">
						<stop  offset="0" style="stop-color:#00EFFF"/>
						<stop  offset="0.9946" style="stop-color:#C418FF"/>
					</linearGradient>
					<path class="st16" d="M260,294c0.5-0.5,1-0.9,1.5-1.3c1.5-1.3,3.1-2.5,4.8-3.6c1.4-0.9,2.8-1.6,4.3-2.4
						c5.2-2.7,10.9-5.2,16.8-8.1c0.3-0.1,7.5-3.3,17.3-8.5c7.5-4,16.5-9.3,25.2-15.3c1.4-1,3.3-2.1,4.7-3.1
						c4.9-11.4,8.1-24.2,10.1-38.9c-4.1,3.7-8.6,7.1-13.2,10.4c-8.4,5.9-17.3,11.1-24.6,15c-9.6,5.1-16.7,8.2-16.9,8.3
						c-5.8,2.8-11.3,5.2-16.4,7.9c-1.5,0.8-2.9,1.5-4.2,2.3c-1.7,1.1-3.2,2.3-4.7,3.5c-0.5,0.4-1,0.9-1.4,1.3c0,0-0.4,0.4-1.1,1.1
						c-4.6,4.8-21.5,25-24.6,66.6c0,0.6-0.1,1.3-0.1,1.9c0.8-0.2,1.1,0.2,2,0c6.5-20.9,16.4-32.7,19.6-36.1
						C259.5,294.4,260,294,260,294z"/>
					<linearGradient id="SVGID_17_" gradientUnits="userSpaceOnUse" x1="367.1125" y1="227.2497" x2="269.5423" y2="304.5135">
						<stop  offset="0" style="stop-color:#00EFFF"/>
						<stop  offset="0.9946" style="stop-color:#C418FF"/>
					</linearGradient>
					<path class="st17" d="M333.9,251.8c-1.3,1-2.7,2-4.1,2.9c-8.6,6.1-17.7,11.3-25.2,15.3c-9.8,5.3-17,8.4-17.3,8.5
						c-5.9,2.8-11.6,5.3-16.8,8.1c-1.5,0.8-3,1.5-4.3,2.4c-1.7,1.1-3.3,2.3-4.8,3.6c-0.5,0.4-1,0.9-1.5,1.3c0,0-0.4,0.4-1.2,1.1
						c-3.3,3.4-13.1,15.2-19.6,36.1C261.4,325.1,310.8,305.2,333.9,251.8z"/>
					<linearGradient id="SVGID_18_" gradientUnits="userSpaceOnUse" x1="312.1581" y1="212.5383" x2="124.1738" y2="319.8173">
						<stop  offset="0" style="stop-color:#00EFFF"/>
						<stop  offset="0.9946" style="stop-color:#C418FF"/>
					</linearGradient>
					<path class="st18" d="M218.1,310.1c3.2-41.6,20.1-61.8,24.6-66.6c0.7-0.7,1.1-1.1,1.1-1.1c0.5-0.4,0.9-0.9,1.4-1.3
						c1.4-1.3,3-2.4,4.7-3.5c1.3-0.9,2.7-1.6,4.2-2.3c5.1-2.7,10.7-5.1,16.4-7.9c0.3-0.1,7.3-3.2,16.9-8.3c7.3-3.9,16.2-9.1,24.6-15
						c16.2-11.4,31-25.7,31-40c0-10.7-3.7-21-11.3-27.5c5.6,6.5,8.3,15.4,8.3,24.6c0,14.3-14.8,28.7-31,40
						c-8.4,5.9-17.3,11.1-24.6,15c-9.6,5.1-16.7,8.2-16.9,8.3c-5.8,2.8-11.3,5.2-16.4,7.9c-1.5,0.8-2.9,1.5-4.2,2.3
						c-1.7,1.1-3.2,2.3-4.7,3.5c-0.5,0.4-1,0.9-1.4,1.3c0,0-0.4,0.4-1.1,1.1c-4.6,4.8-21.5,25-24.6,66.6c-0.3,4.5-0.5,9.3-0.5,14.3
						c0,4.4,2.1,7.2,4.7,8.9c-1-1.5-1.7-3.5-1.7-5.9C217.6,319.4,217.8,314.6,218.1,310.1z"/>
				</g>
			</g>
			<g>
				<linearGradient id="SVGID_19_" gradientUnits="userSpaceOnUse" x1="106.9992" y1="215.5676" x2="224.1772" y2="348.222">
					<stop  offset="0" style="stop-color:#00EFFF"/>
					<stop  offset="0.9946" style="stop-color:#C418FF"/>
				</linearGradient>
				<path class="st19" d="M238.3,331.2c0,0-62.9,18.5-129.2-43.7c-30.9-29-49.3-72.7-36.6-129.2c0,0,3.1-18.6,22.2-27.4
					c-11,5.8-17.6,17.1-17.6,30c0,11,8.2,21.9,19.2,31.6c5.8,5,12.1,9.4,18.7,13.2c9.3,5.3,25,14.2,29.9,16.5c2.7,1.3,4.5,2,4.6,2.1
					c2.3,1.1,4.5,2.1,6.7,3.1c2.3,1.1,6.8,3.2,6.8,3.2c1,0.5,8.3,4.5,8.3,4.4c6.4,3.8,17.7,11.2,29.3,22.3
					C217.7,273.9,235.3,298.4,238.3,331.2z"/>
				<g>
					<linearGradient id="SVGID_20_" gradientUnits="userSpaceOnUse" x1="147.4673" y1="242.0717" x2="264.8345" y2="374.9402">
						<stop  offset="0" style="stop-color:#00EFFF"/>
						<stop  offset="0.9946" style="stop-color:#C418FF"/>
					</linearGradient>
					<path class="st20" d="M74.6,153.9c-0.9,2.7-1.2,4.5-1.2,4.5c-1.9,8.3-3.1,16.4-3.6,24.1c1.4-0.9,2.9-1.7,4.5-2.4
						c-1.6,0.8-3.1,1.8-4.5,2.9c-0.6,8.1-0.5,15.9,0.2,23.4c2.5,2.8,5.3,5.6,8.4,8.3c5.8,5,12.1,9.4,18.7,13.2
						c9.3,5.3,25,14.2,29.9,16.5c2.7,1.3,4.5,2,4.6,2.1c2.3,1.1,4.5,2.1,6.7,3.1c2.3,1.1,6.8,3.2,6.8,3.2c1,0.5,8.3,4.5,8.3,4.4
						c6.4,3.8,17.7,11.2,29.3,22.3c13.5,13,27.4,31,34,54.2c14-0.1,22.6-2.6,22.6-2.6c-2.9-32.8-20.6-57.4-37.7-73.8
						c-11.6-11.1-22.9-18.5-29.3-22.3c0,0-7.3-3.9-8.3-4.4c0,0-4.5-2.2-6.8-3.2c-2.2-1-4.4-2.1-6.7-3.1c-0.1-0.1-1.9-0.8-4.6-2.1
						c-4.8-2.3-20.6-11.2-29.9-16.5c-6.6-3.8-13-8.1-18.7-13.2C86.2,183,78,172,78,161c0-12.8,6.2-24.5,17.2-30.2
						c-13.1,6-18.5,16.8-20.5,23c0.5-0.3,1.1-0.5,1.6-0.8C75.7,153.2,75.2,153.6,74.6,153.9z"/>
					<linearGradient id="SVGID_21_" gradientUnits="userSpaceOnUse" x1="115.6994" y1="248.8129" x2="251.0283" y2="368.8866">
						<stop  offset="0" style="stop-color:#00EFFF"/>
						<stop  offset="0.9946" style="stop-color:#C418FF"/>
					</linearGradient>
					<path class="st21" d="M182.6,279.6c-11.6-11.1-22.9-18.5-29.3-22.3c0,0-7.3-3.9-8.3-4.4c0,0-4.5-2.2-6.8-3.2
						c-2.2-1-4.4-2.1-6.7-3.1c-0.1-0.1-1.9-0.8-4.6-2.1c-4.8-2.3-20.6-11.2-29.9-16.5c-6.6-3.8-13-8.1-18.7-13.2
						c-3-2.7-5.9-5.4-8.4-8.3c1.3,13.9,3.7,26.6,8.7,38.2c4.8,3.9,10.9,7.4,16.3,10.4c9.3,5.3,25,14.2,29.9,16.5
						c2.7,1.3,4.5,2,4.6,2.1c2.3,1.1,4.5,2.1,6.7,3.1c2.3,1.1,6.8,3.2,6.8,3.2c1,0.5,8.3,4.5,8.3,4.4c6.4,3.8,17.7,11.2,29.3,22.3
						c7.5,7.2,15.1,15.9,21.5,26.2c5.3,0.6,10.2,0.8,14.6,0.8C210,310.6,196.2,292.6,182.6,279.6z"/>
					<linearGradient id="SVGID_22_" gradientUnits="userSpaceOnUse" x1="102.8917" y1="249.8051" x2="220.7468" y2="383.226">
						<stop  offset="0" style="stop-color:#00EFFF"/>
						<stop  offset="0.9946" style="stop-color:#C418FF"/>
					</linearGradient>
					<path class="st22" d="M180.6,306.8c-11.6-11.1-22.9-18.5-29.3-22.3c0,0-7.3-3.9-8.3-4.4c0,0-4.5-2.2-6.8-3.2
						c-2.2-1-4.4-2.1-6.7-3.1c-0.1-0.1-1.9-0.8-4.6-2.1c-4.8-2.3-20.6-11.2-29.9-16.5c-5.4-3.1-11.5-6.5-16.3-10.4
						c7.2,16.7,17.7,31,30.4,42.9c34.4,32.2,68.8,42.8,93,45.5C195.7,322.8,188.1,314,180.6,306.8z"/>
					<linearGradient id="SVGID_23_" gradientUnits="userSpaceOnUse" x1="171.4112" y1="239.8546" x2="317.1974" y2="385.6408">
						<stop  offset="0" style="stop-color:#00EFFF"/>
						<stop  offset="0.9946" style="stop-color:#C418FF"/>
					</linearGradient>
					<path class="st23" d="M86.8,136c-1.6,1.3-2.9,2.6-4.2,4c-5.3,6.2-8.2,14.4-8.2,23.1c0,11,8.2,21.9,19.2,31.6
						c5.8,5,12.1,9.4,18.7,13.2c9.3,5.3,25,14.2,29.9,16.5c2.7,1.3,4.5,2,4.6,2.1c2.3,1.1,4.5,2.1,6.7,3.1c2.3,1.1,6.8,3.2,6.8,3.2
						c1,0.5,8.3,4.5,8.3,4.4c6.4,3.8,17.7,11.2,29.3,22.3c16.9,16.2,34.3,40.3,37.5,72.5c2.4-0.5,3.7-0.8,3.7-0.8
						c-2.9-32.8-20.6-57.4-37.7-73.8c-11.6-11.1-22.9-18.5-29.3-22.3c0,0-7.3-3.9-8.3-4.4c0,0-4.5-2.2-6.8-3.2
						c-2.2-1-4.4-2.1-6.7-3.1c-0.1-0.1-1.9-0.8-4.6-2.1c-4.8-2.3-20.6-11.2-29.9-16.5c-6.6-3.8-13-8.1-18.7-13.2
						C86.2,183,78,172,78,161c0-12.8,6.2-24.5,17.2-30.2c-1.9,0.9-3.6,1.8-5.2,2.9c0.5-0.3,1.1-0.5,1.6-0.8
						C89.9,133.8,88.3,134.8,86.8,136z"/>
				</g>
			</g>
		</g>
	</g>
</g>
</svg>
